<?xml version="1.0" encoding="utf-8"?>
<!-- Generator: Adobe Illustrator 23.1.1, SVG Export Plug-In . SVG Version: 6.00 Build 0)  -->
<svg version="1.1" id="レイヤー_1" xmlns="http://www.w3.org/2000/svg" xmlns:xlink="http://www.w3.org/1999/xlink" x="0px"
	 y="0px" viewBox="0 0 2311 2500" style="enable-background:new 0 0 2311 2500;" xml:space="preserve">
<style type="text/css">
	.st0{fill:#42318C;}
</style>
<path class="st0" d="M1917.9,1300.9c46.6-53,87.5-110.7,122-172.2l-206.4-102.8c-29.7,50-66.1,95.6-108.2,135.6
	c-57.6,53.4-118.8,84.5-181.1,92.5c-120.3,15.3-204.4-21.8-327.1-100.5c-128.9-82.7-274.9-176.4-482.2-149.9
	c-125.6,16.1-241,81.9-342.4,195.6c-46.6,53-87.4,110.7-121.8,172.2l206.4,102.8c29.6-49.9,65.9-95.6,107.9-135.7
	c57.1-52.6,117.8-83.5,181.1-91.6c17.3-2.3,34.8-3.5,52.3-3.5c94.9,0,171.1,36.6,274.8,103.1c120.3,77.3,270.3,173.4,482.3,146.5
	C1703.8,1476.6,1818.9,1412,1917.9,1300.9L1917.9,1300.9z M1917.9,686.3c46.6-53,87.5-110.7,122-172.2l-206.4-102.8
	c-29.7,50-66.1,95.6-108.2,135.6c-57.6,53.4-118.8,84.5-181.1,92.5c-120.3,15.3-204.4-21.8-327.1-100.5
	c-128.7-82.7-274.7-176.4-482-149.9c-125.8,16.4-241,81.9-342.3,195.6c-46.6,52.9-87.6,110.7-122.1,172.2l206.4,102.8
	c29.6-49.9,65.9-95.6,107.9-135.7c57.1-52.6,117.8-83.5,181.1-91.6c17.3-2.3,34.8-3.5,52.3-3.5c94.9,0,171.1,36.6,274.8,103.1
	c120.3,77.3,270.2,173.4,482.3,146.5C1703.8,861.9,1818.9,797.3,1917.9,686.3L1917.9,686.3z"/>
<rect x="648.2" y="583.9" transform="matrix(0.866 0.5 -0.5 0.866 785.9451 -196.1001)" class="st0" width="221.3" height="1569.4"/>
</svg>
